<svg width="31" height="30" viewBox="0 0 31 30" fill="none" xmlns="http://www.w3.org/2000/svg">
<path d="M15.018 0C23.295 0 30.0135 6.72 30.0135 14.997C30.0135 23.2725 23.295 29.9925 15.018 29.9925C6.741 29.9925 0.0209961 23.2725 0.0209961 14.997C0.0209961 6.72 6.741 0 15.018 0ZM12.7335 9.315C12.7335 9.315 10.4805 11.5725 7.851 14.2035C7.6305 14.424 7.521 14.712 7.521 15C7.521 15.288 7.6305 15.5745 7.851 15.795C10.4805 18.426 12.732 20.682 12.732 20.682C12.9495 20.8995 13.2345 21.0075 13.521 21.0075C13.809 21.006 14.097 20.8965 14.3175 20.676C14.7555 20.2365 14.7585 19.527 14.322 19.0905L11.3565 16.125H21.396C22.017 16.125 22.521 15.621 22.521 15C22.521 14.379 22.017 13.875 21.396 13.875H11.3565L14.3235 10.9065C14.7585 10.473 14.754 9.7635 14.3145 9.3255C14.094 9.105 13.806 8.994 13.5195 8.9925C13.2345 8.9925 12.9495 9.099 12.7335 9.315Z" fill="black"/>
</svg>
