<svg width="16" height="16" viewBox="0 0 16 16" fill="none" xmlns="http://www.w3.org/2000/svg">
<path fill-rule="evenodd" clip-rule="evenodd" d="M9.90066 7.94867C9.78132 7.52134 9.55332 7.118 9.21732 6.78267C8.17599 5.74133 6.48732 5.74067 5.44599 6.78267L2.11399 10.1147C1.07266 11.1567 1.07199 12.8447 2.11399 13.886C3.15532 14.928 4.84466 14.9267 5.88466 13.886L8.44599 11.3253L8.66799 11.3313C8.93732 11.3313 9.20266 11.3047 9.46066 11.2533L6.35599 14.3573C5.70599 15.008 4.85266 15.3333 3.99932 15.3333C3.14599 15.3333 2.29266 15.008 1.64266 14.3573C0.341323 13.0567 0.341323 10.944 1.64266 9.64334L4.97466 6.31133C5.62466 5.66067 6.47866 5.33533 7.33199 5.33533C8.18466 5.33533 9.03866 5.66067 9.68866 6.31133C10.0173 6.64 10.2627 7.02 10.4253 7.426L9.90066 7.94867ZM6.09866 8.04667C6.21732 8.47533 6.44599 8.88 6.78266 9.21733C7.82399 10.2593 9.51332 10.258 10.5533 9.21733L13.886 5.88533C14.928 4.844 14.928 3.15533 13.886 2.114C12.8447 1.07267 11.156 1.072 10.1147 2.114L7.55399 4.67467L7.33199 4.66867C7.06266 4.66867 6.79732 4.69533 6.53932 4.74667L9.64332 1.64267C10.2933 0.992001 11.1473 0.666668 12.0007 0.666668C12.8533 0.666668 13.7073 0.992001 14.3573 1.64267C15.658 2.94333 15.658 5.05533 14.3573 6.35667L11.0247 9.68867C10.3747 10.3393 9.52132 10.6647 8.66799 10.6647C7.81466 10.6647 6.96132 10.3393 6.31132 9.68867C5.98199 9.35867 5.73599 8.97733 5.57332 8.57L6.09866 8.04667Z" fill="#54A3FF"/>
</svg>
