<svg width="23" height="23" viewBox="0 0 23 23" fill="none" xmlns="http://www.w3.org/2000/svg">
<path d="M22.9488 8.82694C22.8885 8.64118 22.7775 8.47601 22.6284 8.35011C22.4792 8.22422 22.2978 8.14262 22.1047 8.11454L15.425 7.14304L12.4377 1.08339C12.3513 0.908267 12.2177 0.760825 12.052 0.65773C11.8863 0.554636 11.6951 0.5 11.5 0.5C11.3049 0.5 11.1137 0.554636 10.948 0.65773C10.7823 0.760825 10.6487 0.908267 10.5623 1.08339L7.57522 7.14297L0.895306 8.11447C0.702216 8.14255 0.520827 8.22415 0.371651 8.35005C0.222476 8.47595 0.111465 8.64112 0.051173 8.82688C-0.009119 9.01264 -0.0162868 9.21158 0.0304802 9.40121C0.0772472 9.59084 0.176083 9.76358 0.315811 9.89991L5.1494 14.6159L4.00791 21.2763C3.97492 21.4688 3.9964 21.6667 4.06991 21.8476C4.14342 22.0285 4.26603 22.1853 4.42387 22.3001C4.58172 22.4149 4.7685 22.4832 4.96311 22.4973C5.15771 22.5114 5.35237 22.4706 5.52507 22.3798L11.4999 19.2355L17.4747 22.3798C17.6258 22.4587 17.7937 22.4999 17.9642 22.5C18.541 22.4992 19.0084 22.0309 19.0084 21.4533C19.0084 21.3729 18.9993 21.2945 18.9821 21.2194L17.8505 14.616L22.6841 9.89991C22.8239 9.76361 22.9227 9.59087 22.9695 9.40125C23.0163 9.21163 23.0091 9.0127 22.9488 8.82694Z" fill="black"/>
</svg>
