<svg width="23" height="15" viewBox="0 0 23 15" fill="none" xmlns="http://www.w3.org/2000/svg">
<path d="M17.8773 6.79777C16.6698 6.79777 15.6934 7.83003 15.6934 9.09553C15.6934 9.39826 15.9292 9.6464 16.217 9.6464C16.5047 9.6464 16.7405 9.39826 16.7405 9.09553C16.7405 8.43548 17.2547 7.89454 17.8821 7.89454C18.1698 7.89454 18.4056 7.6464 18.4056 7.34367C18.4009 7.04094 18.1651 6.79777 17.8773 6.79777Z" fill="black"/>
<path d="M21.4387 5.21464C21.3113 5.08561 21.1745 4.96154 21.033 4.84243L19.099 3.11538C18.3538 2.55955 17.467 2.2072 16.5047 2.13772L16.6085 2.2469L15.4339 1.0062H15.4245C15.099 0.693548 14.6604 0.5 14.1839 0.5C13.3632 0.5 12.6698 1.06079 12.4339 1.83995C12.1981 1.68114 11.9245 1.58685 11.6273 1.567C11.5802 1.56203 11.5283 1.56203 11.4811 1.56203C11.1462 1.56203 10.8349 1.66625 10.5707 1.83995C10.3302 1.06576 9.63678 0.504963 8.82074 0.504963C8.34433 0.504963 7.91037 0.693549 7.58018 1.01117H7.57075L6.39622 2.25186L6.49999 2.14268C5.53773 2.21216 4.64622 2.56948 3.90566 3.12035L1.9717 4.84739C1.83019 4.96154 1.69339 5.08561 1.56604 5.2196C0.599056 6.20223 0 7.57692 0 9.1005C0 12.0782 2.30188 14.5 5.13207 14.5C7.74527 14.5 9.91037 12.4305 10.2217 9.76551C10.599 9.9938 11.0377 10.1228 11.5 10.1228C11.967 10.1228 12.4009 9.9938 12.7783 9.76551C13.0943 12.4256 15.2547 14.495 17.8679 14.495C20.6981 14.495 23 12.0732 23 9.09553C23.0047 7.57196 22.4056 6.19727 21.4387 5.21464ZM5.13207 12.7829C3.19811 12.7829 1.63207 11.1352 1.63207 9.1005C1.63207 7.06576 3.19811 5.41811 5.13207 5.41811C7.06603 5.41811 8.63206 7.06576 8.63206 9.1005C8.63678 11.1303 7.06603 12.7829 5.13207 12.7829ZM11.5047 8.59429C10.8773 8.59429 10.3679 8.05831 10.3679 7.39826C10.3679 6.73821 10.8773 6.20223 11.5047 6.20223C12.1321 6.20223 12.6415 6.73821 12.6415 7.39826C12.6415 8.05831 12.1321 8.59429 11.5047 8.59429ZM17.8773 12.7829C15.9434 12.7829 14.3773 11.1352 14.3773 9.1005C14.3773 7.06576 15.9434 5.41811 17.8773 5.41811C19.8113 5.41811 21.3773 7.06576 21.3773 9.1005C21.3773 11.1303 19.8113 12.7829 17.8773 12.7829Z" fill="black"/>
<path d="M5.13207 6.79777C3.92452 6.79777 2.94811 7.83003 2.94811 9.09553C2.94811 9.39826 3.18396 9.6464 3.47169 9.6464C3.75943 9.6464 3.99528 9.39826 3.99528 9.09553C3.99528 8.43548 4.50943 7.89454 5.13679 7.89454C5.42452 7.89454 5.66037 7.6464 5.66037 7.34367C5.65565 7.04094 5.41981 6.79777 5.13207 6.79777Z" fill="black"/>
</svg>
